# xmcd
#
# Track frame offsets: 
#        150
#        16519
#        31181
#        42262
#        58821
#        74454
#        90448
#        108669
#        127406
#        147002
#        160033
#        177557
#        191696
#
# Disc length: 2805 seconds
#
# Revision: 3
# Processed by: cddbd v1.5.2PL0 Copyright (c) Steve Scherf et al.
# Submitted via: ExactAudioCopy v1.3
#
DISCID=b20af30d
DTITLE=Charles Aznavour - Duos
DYEAR=2008
DGENRE=Chanson
TTITLE0=Toi Et Moi (Feat. Celine Dion)
TTITLE1=Que C'est Triste Venise (Feat. Julio Iglesias)
TTITLE2=Les Bateaux Sont Partis (Feat. Placido Domingo)
TTITLE3=Paris Au Mois S'aout (Feat. Laura Pausini)
TTITLE4=Hier Encore (Feat. Elton John)
TTITLE5=Il Faut Savoir (Feat. Johnny Hallyday)
TTITLE6=Mourir D'aimer (Feat. Nana Mouskouri)
TTITLE7=L'amour C'est Comme Un Jour (Feat. Sting)
TTITLE8=La Boheme (Feat. Josh Groban)
TTITLE9=Ton Nom (Feat. Carole King)
TTITLE10=Je N'ai Pas Vu Le Temps Passer (Feat. Paul Anka)
TTITLE11=Mes Emmerdes (Feat. Herbert Gronemeyer)
TTITLE12=C'est Un Gars (Feat. Edith Piaf)
EXTD=
EXTT0=
EXTT1=
EXTT2=
EXTT3=
EXTT4=
EXTT5=
EXTT6=
EXTT7=
EXTT8=
EXTT9=
EXTT10=
EXTT11=
EXTT12=
PLAYORDER=
